<?xml version="1.0" encoding="utf-8"?>
<!-- Svg Vector Icons : http://www.onlinewebfonts.com/icon -->
<!DOCTYPE svg PUBLIC "-//W3C//DTD SVG 1.1//EN" "http://www.w3.org/Graphics/SVG/1.1/DTD/svg11.dtd">
<svg version="1.1" xmlns="http://www.w3.org/2000/svg" xmlns:xlink="http://www.w3.org/1999/xlink" x="0px" y="0px" viewBox="0 0 1000 1000" enable-background="new 0 0 1000 1000" xml:space="preserve">
<metadata> Svg Vector Icons : http://www.onlinewebfonts.com/icon </metadata>
<g><g transform="translate(0.000000,511.000000) scale(0.100000,-0.100000)"><path d="M4533,4988.4c-540.8-50.3-1170.1-229.7-1672.7-473.8C847.9,3535.9-252.9,1305.7,201.8-879.1C599-2795.8,2106.6-4301,4020.9-4691c2189.5-445.1,4405.4,648.5,5384.1,2658.5c373.3,768.1,548,1667.9,481,2488.6c-52.6,648.5-213,1241.9-481,1794.7C8510,4086.2,6567,5177.4,4533,4988.4z M5483,1827.3l7.2-1227.6l1227.5-7.2l1225.2-4.8V109.2v-478.6l-1225.2-4.8l-1227.5-7.2l-7.2-1225.2l-4.8-1227.6h-478.6H4521l-4.8,1227.6l-7.2,1225.2l-1225.2,7.2l-1227.6,4.8v478.6v478.6l1227.6,4.8l1225.2,7.2l7.2,1227.6l4.8,1225.2h478.6h478.6L5483,1827.3z"/></g></g>
</svg>